<svg version="1.1" xmlns="http://www.w3.org/2000/svg" xmlns:xlink="http://www.w3.org/1999/xlink" x="0px" y="0px" viewBox="0 0 1400 900" style="enable-background:new 0 0 1400 900;" xml:space="preserve">
	<style type="text/css">
	.st0{fill:none;}
	.st1{fill:none;stroke:#CFEDFF;stroke-miterlimit:10;}
	.st2{fill:none;stroke:#CFEDFF;stroke-width:4;stroke-miterlimit:10;}
	.st3{fill:none;stroke:#CFEDFF;stroke-width:2;stroke-miterlimit:10;}
	.st4{fill:url(#SVGID_1_);}
	.st5{fill:url(#SVGID_2_);}
	.st6{fill:url(#SVGID_3_);}
	.st7{fill:none;stroke:#000000;stroke-width:0.8;stroke-miterlimit:10;}
	.st8{fill:rgba(207, 237, 255, 0);}
	.st9{fill:#FFFFFF;stroke:#F04E00;stroke-width:0.8;stroke-miterlimit:10;}
	.st10{fill:#FFFFFF;stroke:#F04E00;stroke-width:0.8;stroke-linecap:round;stroke-linejoin:round;stroke-miterlimit:10;}
	.st11{fill:none;stroke:#F04E00;stroke-width:0.8;stroke-linecap:round;stroke-linejoin:round;stroke-miterlimit:10;}
	.st12{fill:#F04E00;}
</style>
	<pattern x="-5640" width="10" height="10" patternUnits="userSpaceOnUse" id="New_Pattern_3" viewBox="51.1 -61.1 10 10" style="overflow:visible;">
		<g>
			<rect x="51.1" y="-61.1" class="st0" width="10" height="10" />
			<line class="st1" x1="111.9" y1="-51.9" x2="60.4" y2="-0.4" />
			<line class="st1" x1="101.9" y1="-51.9" x2="50.4" y2="-0.4" />
			<line class="st1" x1="91.9" y1="-51.9" x2="40.4" y2="-0.4" />
			<line class="st1" x1="81.9" y1="-51.9" x2="30.4" y2="-0.4" />
			<line class="st1" x1="71.9" y1="-51.9" x2="20.4" y2="-0.4" />
			<line class="st1" x1="61.9" y1="-51.9" x2="10.4" y2="-0.4" />
			<line class="st1" x1="51.9" y1="-51.9" x2="0.4" y2="-0.4" />
			<line class="st1" x1="111.9" y1="-61.9" x2="60.4" y2="-10.4" />
			<line class="st1" x1="101.9" y1="-61.9" x2="50.4" y2="-10.4" />
			<line class="st1" x1="91.9" y1="-61.9" x2="40.4" y2="-10.4" />
			<line class="st1" x1="81.9" y1="-61.9" x2="30.4" y2="-10.4" />
			<line class="st1" x1="71.9" y1="-61.9" x2="20.4" y2="-10.4" />
			<line class="st1" x1="61.9" y1="-61.9" x2="10.4" y2="-10.4" />
			<line class="st1" x1="51.9" y1="-61.9" x2="0.4" y2="-10.4" />
			<line class="st1" x1="111.9" y1="-71.9" x2="60.4" y2="-20.4" />
			<line class="st1" x1="101.9" y1="-71.9" x2="50.4" y2="-20.4" />
			<line class="st1" x1="91.9" y1="-71.9" x2="40.4" y2="-20.4" />
			<line class="st1" x1="81.9" y1="-71.9" x2="30.4" y2="-20.4" />
			<line class="st1" x1="71.9" y1="-71.9" x2="20.4" y2="-20.4" />
			<line class="st1" x1="61.9" y1="-71.9" x2="10.4" y2="-20.4" />
			<line class="st1" x1="51.9" y1="-71.9" x2="0.4" y2="-20.4" />
			<line class="st1" x1="111.9" y1="-81.9" x2="60.4" y2="-30.4" />
			<line class="st1" x1="101.9" y1="-81.9" x2="50.4" y2="-30.4" />
			<line class="st1" x1="91.9" y1="-81.9" x2="40.4" y2="-30.4" />
			<line class="st1" x1="81.9" y1="-81.9" x2="30.4" y2="-30.4" />
			<line class="st1" x1="71.9" y1="-81.9" x2="20.4" y2="-30.4" />
			<line class="st1" x1="61.9" y1="-81.9" x2="10.4" y2="-30.4" />
			<line class="st1" x1="51.9" y1="-81.9" x2="0.4" y2="-30.4" />
			<line class="st1" x1="111.9" y1="-91.9" x2="60.4" y2="-40.4" />
			<line class="st1" x1="101.9" y1="-91.9" x2="50.4" y2="-40.4" />
			<line class="st1" x1="91.9" y1="-91.9" x2="40.4" y2="-40.4" />
			<line class="st1" x1="81.9" y1="-91.9" x2="30.4" y2="-40.4" />
			<line class="st1" x1="71.9" y1="-91.9" x2="20.4" y2="-40.4" />
			<line class="st1" x1="61.9" y1="-91.9" x2="10.4" y2="-40.4" />
			<line class="st1" x1="51.9" y1="-91.9" x2="0.4" y2="-40.4" />
			<line class="st1" x1="111.9" y1="-101.9" x2="60.4" y2="-50.4" />
			<line class="st1" x1="101.9" y1="-101.9" x2="50.4" y2="-50.4" />
			<line class="st1" x1="91.9" y1="-101.9" x2="40.4" y2="-50.4" />
			<line class="st1" x1="81.9" y1="-101.9" x2="30.4" y2="-50.4" />
			<line class="st1" x1="71.9" y1="-101.9" x2="20.4" y2="-50.4" />
			<line class="st1" x1="61.9" y1="-101.9" x2="10.4" y2="-50.4" />
			<line class="st1" x1="51.9" y1="-101.9" x2="0.4" y2="-50.4" />
			<line class="st1" x1="111.9" y1="-111.9" x2="60.4" y2="-60.4" />
			<line class="st1" x1="101.9" y1="-111.9" x2="50.4" y2="-60.4" />
			<line class="st1" x1="91.9" y1="-111.9" x2="40.4" y2="-60.4" />
			<line class="st1" x1="81.9" y1="-111.9" x2="30.4" y2="-60.4" />
			<line class="st1" x1="71.9" y1="-111.9" x2="20.4" y2="-60.4" />
			<line class="st1" x1="61.9" y1="-111.9" x2="10.4" y2="-60.4" />
			<line class="st1" x1="51.9" y1="-111.9" x2="0.4" y2="-60.4" />
		</g>
	</pattern>
	<g id="bg_all_square">
		<path class="st2" d="M109,835h211h11h774h26h101c50,0,116-41,116-123V45h-324c0,0,0,335.5,0,434v16c-29,9-49.1,31.7-52,62H347
		l-13,13l-17.5-16.5l14-14.5V101H60v100v634h12" />
		<g>
			<line class="st3" x1="90.5" y1="809" x2="90.5" y2="848" />
			<polyline class="st3" points="76.5,822 90.5,808 104.5,822 		" />
		</g>
	</g>
	<g id="rooms">
		<g>
			<line class="st3" x1="60" y1="201" x2="174" y2="201" />
			<polyline class="st3" points="156.9,201.5 156.9,260 168,278.2 168,355 60,355 		" />
			<line class="st3" x1="59" y1="463" x2="168" y2="463" />
			<line class="st3" x1="59" y1="557" x2="168" y2="557" />
			<line class="st3" x1="59" y1="653" x2="167" y2="653" />
			<line class="st3" x1="168" y1="355" x2="168" y2="401" />
			<line class="st3" x1="168" y1="428" x2="168" y2="493" />
			<line class="st3" x1="168" y1="525" x2="168" y2="592" />
			<line class="st3" x1="168" y1="625" x2="168" y2="660" />
			<line class="st3" x1="168" y1="686" x2="168" y2="702" />
			<line class="st3" x1="1024" y1="119" x2="1143" y2="119" />
			<line class="st3" x1="1024" y1="293" x2="1143" y2="293" />
			<line class="st3" x1="1142" y1="119" x2="1142" y2="173" />
			<line class="st3" x1="1142" y1="207" x2="1142" y2="320" />
			<line class="st3" x1="1024" y1="389" x2="1143" y2="389" />
			<line class="st3" x1="1142" y1="347" x2="1142" y2="407" />
			<line class="st3" x1="1024" y1="444" x2="1143" y2="444" />
			<line class="st3" x1="1142" y1="437" x2="1142" y2="459" />
			<line class="st3" x1="1024" y1="495" x2="1143" y2="495" />
			<line class="st3" x1="218" y1="303" x2="329.8" y2="303" />
			<line class="st3" x1="218" y1="509" x2="329.8" y2="509" />
			<line class="st3" x1="330.8" y1="384.5" x2="218.8" y2="384.5" />
			<line class="st3" x1="330.8" y1="449.5" x2="219" y2="449.5" />
			<polyline class="st3" points="218,564 304.8,564 320.8,548 		" />
			<line class="st3" x1="218" y1="289" x2="218" y2="331" />
			<line class="st3" x1="207" y1="201" x2="329.5" y2="201" />
			<line class="st3" x1="218" y1="364" x2="218" y2="408" />
			<line class="st3" x1="218" y1="493" x2="218" y2="524" />
			<polyline class="st3" points="218,553 218,642 227.5,651.5 		" />
			<polyline class="st3" points="319,678 319,586.2 345,560.2 		" />
			<polyline class="st3" points="249,672 257.5,679 333,679 		" />
			<line class="st3" x1="366" y1="679" x2="426" y2="679" />
			<line class="st3" x1="384" y1="557" x2="384" y2="679" />
			<line class="st3" x1="486" y1="557" x2="486" y2="679" />
			<line class="st3" x1="326" y1="729" x2="326" y2="836" />
			<line class="st3" x1="428" y1="729" x2="428" y2="836" />
			<line class="st3" x1="552" y1="729" x2="552" y2="836" />
			<line class="st3" x1="285" y1="729" x2="357" y2="729" />
			<line class="st3" x1="61" y1="793" x2="119" y2="793" />
			<line class="st3" x1="61" y1="785" x2="119" y2="785" />
			<line class="st3" x1="61" y1="777" x2="119" y2="777" />
			<line class="st3" x1="61" y1="769" x2="119" y2="769" />
			<line class="st3" x1="61" y1="761" x2="128" y2="761" />
			<line class="st3" x1="159" y1="761" x2="168" y2="761" />
			<line class="st3" x1="61" y1="753" x2="119" y2="753" />
			<line class="st3" x1="61" y1="745" x2="119" y2="745" />
			<line class="st3" x1="61" y1="737" x2="119" y2="737" />
			<line class="st3" x1="61" y1="729" x2="119" y2="729" />
			<polyline class="st3" points="252,729 168,729 168,835 		" />
			<polyline class="st3" points="168,695 119,695 119,835 		" />
			<line class="st3" x1="390" y1="729" x2="474" y2="729" />
			<line class="st3" x1="659" y1="729" x2="659" y2="836" />
			<line class="st3" x1="790" y1="729" x2="790" y2="836" />
			<line class="st3" x1="619" y1="729" x2="700" y2="729" />
			<line class="st3" x1="733" y1="729" x2="843" y2="729" />
			<line class="st3" x1="910" y1="729" x2="910" y2="836" />
			<line class="st3" x1="876" y1="729" x2="938" y2="729" />
			<line class="st3" x1="1006" y1="729" x2="1006" y2="836" />
			<line class="st3" x1="967" y1="729" x2="1034" y2="729" />
			<line class="st3" x1="1097" y1="729" x2="1097" y2="836" />
			<line class="st3" x1="1063" y1="729" x2="1133" y2="729" />
			<line class="st3" x1="1192" y1="729" x2="1192" y2="836" />
			<polyline class="st3" points="1162,729 1192,729 1200,719 		" />
			<line class="st3" x1="508" y1="729" x2="585" y2="729" />
			<line class="st3" x1="458" y1="679" x2="516" y2="679" />
			<line class="st3" x1="549" y1="679" x2="616" y2="679" />
			<line class="st3" x1="580" y1="557" x2="580" y2="679" />
			<line class="st3" x1="678" y1="557" x2="678" y2="679" />
			<line class="st3" x1="770" y1="557" x2="770" y2="679" />
			<line class="st3" x1="649" y1="679" x2="707" y2="679" />
			<line class="st3" x1="920" y1="557" x2="920" y2="679" />
			<line class="st3" x1="919" y1="679" x2="933" y2="679" />
			<line class="st3" x1="740" y1="679" x2="771" y2="679" />
			<line class="st3" x1="770" y1="648" x2="788" y2="648" />
			<line class="st3" x1="872" y1="556" x2="872" y2="648" />
			<line class="st3" x1="972" y1="557" x2="972" y2="679" />
			<polyline class="st3" points="958,679 1075,679 1142,585.8 1142,481 		" />
			<line class="st3" x1="218" y1="201.8" x2="218" y2="256" />
			<line class="st3" x1="1211" y1="191" x2="1346.8" y2="191" />
			<line class="st3" x1="1347.8" y1="261.5" x2="1211.8" y2="261.5" />
			<line class="st3" x1="1347.8" y1="356.5" x2="1212" y2="356.5" />
			<line class="st3" x1="1211" y1="183" x2="1211" y2="214" />
			<line class="st3" x1="1211" y1="243" x2="1211" y2="296" />
			<line class="st3" x1="1348" y1="448" x2="1212" y2="448" />
			<line class="st3" x1="1211" y1="324" x2="1211" y2="399" />
			<line class="st3" x1="1211" y1="428" x2="1211" y2="487" />
			<line class="st3" x1="1347.8" y1="543.5" x2="1212" y2="543.5" />
			<line class="st3" x1="1347.8" y1="649.5" x2="1211.8" y2="649.5" />
			<line class="st3" x1="1211" y1="516" x2="1211" y2="589" />
			<line class="st3" x1="1211" y1="618" x2="1211" y2="687" />
			<line class="st3" x1="1211" y1="45.8" x2="1211" y2="154" />
			<line class="st3" x1="1143" y1="134" x2="1155" y2="134" />
			<line class="st3" x1="1195" y1="134" x2="1211" y2="134" />
			<polyline class="st3" points="817,648 872,648 892,668 		" />
			<line class="st3" x1="160" y1="777" x2="127.7" y2="826" />
			<line class="st3" x1="127" y1="777" x2="159.3" y2="826" />
			<line class="st3" x1="218" y1="436" x2="218" y2="464" />
			<rect x="127" y="777" class="st3" width="33" height="49" />
		</g>
	</g>
	<g id="MNOINT_l1_f2_special-rooms" class="map-rooms-wrap">
		<pattern id="SVGID_1_" data-test="123" xlink:href="#New_Pattern_3" patternTransform="matrix(1 0 0 1 -6 6)"></pattern>
		<polygon id="_l1_f2_s_p4" class="st4" points="1024,45 1212,45 1212,134 1142,134 1142,119 1024,119 	" />
		<pattern id="SVGID_2_" xlink:href="#New_Pattern_3" patternTransform="matrix(1 0 0 1 -6 6)"></pattern>
		<rect id="_l1_f2_s_p5" x="1211" y="191" class="st5" width="137" height="70" />
		<pattern id="SVGID_3_" xlink:href="#New_Pattern_3" patternTransform="matrix(1 0 0 1 -6 6)"></pattern>
		<polygon id="_l1_f2_s_p3" class="st6" points="218,564 304,564 316,552 334,570 318,586 318,679 258,679 218,641 	" />
	</g>

	<g id="MLOC_l1_f2_rooms" class="map-rooms-wrap">
		<rect id="_l1_f2_r_201" data-id="_x32_01" x="60" y="557" class="st8" width="109" height="96" />
		<rect id="_l1_f2_r_202" data-id="_x32_03_1_" x="60" y="463" class="st8" width="109" height="94" />
		<rect id="_l1_f2_r_203" data-id="_x32_03" x="60" y="355" class="st8" width="109" height="108" />
		<polygon id="_l1_f2_r_204" data-id="_x32_04" class="st8" points="169,355 60,355 60,201 157,201 157,260 169,279 	" />
		<rect id="_l1_f2_r_205" data-id="_x32_05" x="60" y="101" class="st8" width="270" height="101" />
		<rect id="_l1_f2_r_206" data-id="_x32_06" x="217" y="201" class="st8" width="113" height="101" />
		<rect id="_l1_f2_r_207" data-id="_x32_02" x="217" y="303" class="st8" width="113" height="82" />
		<rect id="_l1_f2_r_208" data-id="_x32_08" x="217" y="385" class="st8" width="113" height="64" />
		<rect id="_l1_f2_r_213" data-id="_x32_13" x="384" y="557" class="st8" width="102" height="123" />
		<rect id="_l1_f2_r_214" data-id="_x32_14" x="486" y="557" class="st8" width="94" height="123" />
		<rect id="_l1_f2_r_215" data-id="_x32_15" x="580" y="557" class="st8" width="98" height="123" />
		<rect id="_l1_f2_r_216" data-id="_x32_16" x="678" y="557" class="st8" width="92" height="123" />
		<rect id="_l1_f2_r_217" data-id="_x32_17" x="770" y="557" class="st8" width="102" height="92" />
		<rect id="_l1_f2_r_221" data-id="_x32_21" x="1024" y="293" class="st8" width="119" height="96" />
		<rect id="_l1_f2_r_222" data-id="_x32_22" x="1024" y="119" class="st8" width="119" height="174" />
		<rect id="_l1_f2_r_224" data-id="_x32_25" x="1210" y="45" class="st8" width="138" height="146" />
		<rect id="_l1_f2_r_226" data-id="_x32_26" x="1210" y="261" class="st8" width="138" height="95" />
		<rect id="_l1_f2_r_227" data-id="_x32_27" x="1210" y="356" class="st8" width="138" height="92" />
		<rect id="_l1_f2_r_228" data-id="_x32_28" x="1210" y="448" class="st8" width="138" height="95" />
		<rect id="_l1_f2_r_229" data-id="_x32_29" x="1210" y="544" class="st8" width="138" height="105" />
		<path id="_l1_f2_r_230" data-id="_x32_30" class="st8" d="M1348,649.5V712c0,82-66,123-116,123h-40V728l18-25v-53L1348,649.5z" />
		<rect id="_l1_f2_r_231" data-id="_x32_31" x="1097" y="728" class="st8" width="95" height="107" />
		<rect id="_l1_f2_r_232" data-id="_x32_32" x="1006" y="728" class="st8" width="91" height="107" />
		<rect id="_l1_f2_r_233" data-id="_x32_33" x="910" y="728" class="st8" width="96" height="107" />
		<rect id="_l1_f2_r_234" data-id="_x32_34" x="790" y="728" class="st8" width="120" height="107" />
		<rect id="_l1_f2_r_235" data-id="_x32_35" x="659" y="728" class="st8" width="131" height="107" />
		<rect id="_l1_f2_r_236" data-id="_x323242342_36" x="552" y="728" class="st8" width="107" height="107" />
		<rect id="_l1_f2_r_237" data-id="_x32_37" x="428" y="728" class="st8" width="124" height="107" />
		<rect id="_l1_f2_r_238" data-id="_x32_2352353238" x="326" y="728" class="st8" width="102" height="107" />
		<rect id="_l1_f2_r_239" data-id="_x32_34643646436643" x="168" y="728" class="st8" width="158" height="107" />

	</g>

	<g id="MLOC_l1_f2_other">
		<g id="_l1_f2_o_s1">
			<circle class="st9" cx="1190.7" cy="667" r="12.5" />
			<polyline class="st10" points="1186.2,668.7 1186.2,660.4 1192.2,660.4 1196.1,664.5 1196.1,668.7 		" />
			<rect x="1183.7" y="668.5" class="st10" width="14.5" height="2.6" />
			<line class="st11" x1="1192.2" y1="673.5" x2="1192.2" y2="671.5" />
			<line class="st11" x1="1194.2" y1="673.5" x2="1194.2" y2="671.5" />
			<line class="st11" x1="1196.2" y1="673.5" x2="1196.2" y2="671.5" />
			<line class="st11" x1="1190.2" y1="675.5" x2="1190.2" y2="671.5" />
			<line class="st11" x1="1188.2" y1="675.5" x2="1188.2" y2="671.5" />
			<line class="st11" x1="1186.2" y1="673.5" x2="1186.2" y2="671.5" />
			<polyline class="st11" points="1192.2,660.5 1192.2,664.5 1196.1,664.5 		" />
		</g>
		<g id="_l1_f2_o_s2">
			<circle class="st9" cx="235" cy="711" r="12.5" />
			<polyline class="st10" points="230.5,712.7 230.5,704.4 236.5,704.4 240.4,708.5 240.4,712.7 		" />
			<rect x="228" y="712.5" class="st10" width="14.5" height="2.6" />
			<line class="st11" x1="236.4" y1="717.5" x2="236.4" y2="715.5" />
			<line class="st11" x1="238.4" y1="717.5" x2="238.4" y2="715.5" />
			<line class="st11" x1="240.4" y1="717.5" x2="240.4" y2="715.5" />
			<line class="st11" x1="234.4" y1="719.5" x2="234.4" y2="715.5" />
			<line class="st11" x1="232.4" y1="719.5" x2="232.4" y2="715.5" />
			<line class="st11" x1="230.5" y1="717.5" x2="230.5" y2="715.5" />
			<polyline class="st11" points="236.5,704.5 236.5,708.5 240.4,708.5 		" />
		</g>
		<g id="_l1_f2_o_s3">
			<circle class="st9" cx="176.7" cy="257" r="12.5" />
			<polyline class="st10" points="172.2,258.7 172.2,250.4 178.2,250.4 182.1,254.5 182.1,258.7 		" />
			<rect x="169.7" y="258.5" class="st10" width="14.5" height="2.6" />
			<line class="st11" x1="178.2" y1="263.5" x2="178.2" y2="261.5" />
			<line class="st11" x1="180.2" y1="263.5" x2="180.2" y2="261.5" />
			<line class="st11" x1="182.2" y1="263.5" x2="182.2" y2="261.5" />
			<line class="st11" x1="176.2" y1="265.5" x2="176.2" y2="261.5" />
			<line class="st11" x1="174.2" y1="265.5" x2="174.2" y2="261.5" />
			<line class="st11" x1="172.2" y1="263.5" x2="172.2" y2="261.5" />
			<polyline class="st11" points="178.2,250.5 178.2,254.5 182.1,254.5 		" />
		</g>
		<g id="_l1_f2_o_p1">
			<circle class="st9" cx="1161.7" cy="365.1" r="12.5" />
			<g>
				<polyline class="st10" points="1157.1,362.7 1157.1,359.4 1166.4,359.4 1166.4,362.7 			" />
				<rect x="1155" y="362.7" class="st10" width="13.5" height="6.5" />
				<rect x="1157.4" y="366.3" class="st10" width="8.7" height="5.6" />
				<line class="st11" x1="1159.6" y1="368.7" x2="1163.7" y2="368.7" />
				<line class="st11" x1="1159.6" y1="370.3" x2="1163.7" y2="370.3" />
				<circle class="st12" cx="1166.1" cy="364.7" r="0.4" />
			</g>
		</g>
		<g id="_l1_f2_o_p2">
			<circle class="st9" cx="1190.7" cy="635.1" r="12.5" />
			<g>
				<polyline class="st10" points="1186.1,632.7 1186.1,629.4 1195.4,629.4 1195.4,632.7 			" />
				<rect x="1184" y="632.7" class="st10" width="13.5" height="6.5" />
				<rect x="1186.4" y="636.3" class="st10" width="8.7" height="5.6" />
				<line class="st11" x1="1188.6" y1="638.7" x2="1192.7" y2="638.7" />
				<line class="st11" x1="1188.6" y1="640.3" x2="1192.7" y2="640.3" />
				<circle class="st12" cx="1195.1" cy="634.7" r="0.4" />
			</g>
		</g>
		<g id="_l1_f2_o_p3">
			<circle class="st9" cx="863.7" cy="670.1" r="12.5" />
			<g>
				<polyline class="st10" points="859.1,667.7 859.1,664.4 868.4,664.4 868.4,667.7 			" />
				<rect x="857" y="667.7" class="st10" width="13.5" height="6.5" />
				<rect x="859.4" y="671.3" class="st10" width="8.7" height="5.6" />
				<line class="st11" x1="861.6" y1="673.7" x2="865.7" y2="673.7" />
				<line class="st11" x1="861.6" y1="675.3" x2="865.7" y2="675.3" />
				<circle class="st12" cx="868.1" cy="669.7" r="0.4" />
			</g>
		</g>
		<g id="_l1_f2_o_p4">
			<circle class="st9" cx="832.7" cy="670.1" r="12.5" />
			<g>
				<polyline class="st10" points="828.1,667.7 828.1,664.4 837.4,664.4 837.4,667.7 			" />
				<rect x="826" y="667.7" class="st10" width="13.5" height="6.5" />
				<rect x="828.4" y="671.3" class="st10" width="8.7" height="5.6" />
				<line class="st11" x1="830.6" y1="673.7" x2="834.7" y2="673.7" />
				<line class="st11" x1="830.6" y1="675.3" x2="834.7" y2="675.3" />
				<circle class="st12" cx="837.1" cy="669.7" r="0.4" />
			</g>
		</g>
		<g id="_l1_f2_o_p5">
			<circle class="st9" cx="202.7" cy="711.1" r="12.5" />
			<g>
				<polyline class="st10" points="198.1,708.7 198.1,705.4 207.4,705.4 207.4,708.7 			" />
				<rect x="196" y="708.7" class="st10" width="13.5" height="6.5" />
				<rect x="198.4" y="712.3" class="st10" width="8.7" height="5.6" />
				<line class="st11" x1="200.6" y1="714.7" x2="204.7" y2="714.7" />
				<line class="st11" x1="200.6" y1="716.3" x2="204.7" y2="716.3" />
				<circle class="st12" cx="207.1" cy="710.7" r="0.4" />
			</g>
		</g>
		<g id="_l1_f2_o_p6">
			<circle class="st9" cx="176.7" cy="225.1" r="12.5" />
			<g>
				<polyline class="st10" points="172.1,222.7 172.1,219.4 181.4,219.4 181.4,222.7 			" />
				<rect x="170" y="222.7" class="st10" width="13.5" height="6.5" />
				<rect x="172.4" y="226.3" class="st10" width="8.7" height="5.6" />
				<line class="st11" x1="174.6" y1="228.7" x2="178.7" y2="228.7" />
				<line class="st11" x1="174.6" y1="230.3" x2="178.7" y2="230.3" />
				<circle class="st12" cx="181.1" cy="224.7" r="0.4" />
			</g>
		</g>

		<g id="_l1_f2_o_tea1">
			<g>
				<circle cx="272.3" cy="480.1" r="12.5" fill="#ffffff" stroke="#000000" ></circle>

				<path d="M266.4,475.7v4.9c0,1.4,1.1,2.5,2.5,2.5h5.3c1.4,0,2.5-1.1,2.5-2.5v-4.9H266.4z M274.2,483.8h-5.3
				c-1.8,0-3.3-1.5-3.3-3.3v-5.7h11.8v5.7C277.4,482.4,276,483.8,274.2,483.8"></path>
				<path d="M277.8,480.8h-0.9V480h0.9c1.2,0,2.2-1,2.2-2.2s-1-2.2-2.2-2.2h-0.9v-0.8h0.9c1.6,0,3,1.3,3,3
				C280.8,479.5,279.5,480.8,277.8,480.8"></path>
			</g>
			<rect x="265" y="485.1" width="14" height="0.8"></rect>
			<g>
				<path d="M272.2,479.8h1.8v-1.5c0-0.4-0.4-0.8-0.8-0.8H273c-0.4,0-0.8,0.4-0.8,0.8V479.8z M274.8,480.6h-3.4v-2.4
				c0-0.9,0.7-1.6,1.6-1.6h0.2c0.9,0,1.6,0.7,1.6,1.6V480.6z"></path>
			</g>
			<rect x="272.7" y="475.3" width="0.8" height="1.7"></rect>
		</g>

		<g id="_l1_f2_o_womantoilet1">
			<circle cx="272.3" cy="536.1" r="12.5" fill="#ffffff" stroke="#000000" ></circle>

			<path d="M272.2,527c-0.9,0-1.7,0.8-1.7,1.7c0,0.9,0.7,1.7,1.7,1.7s1.7-0.8,1.7-1.7C273.9,527.7,273.1,527,272.2,527 M272.2,531.2
			c-1.4,0-2.5-1.1-2.5-2.5c0-1.4,1.1-2.5,2.5-2.5c1.4,0,2.5,1.1,2.5,2.5C274.7,530.1,273.6,531.2,272.2,531.2"></path>
			<path d="M271.2,532.4c-0.5,0-1,0.4-1,1v3.5c0,0.1,0,0.1-0.1,0.2l-1.9,3.4c-0.1,0.2-0.1,0.4,0.1,0.6c0.1,0.2,0.3,0.3,0.6,0.3h1.7
			c0.2,0,0.3,0.1,0.4,0.3c0.3,1.2,0.7,2.1,1,2.7c0.1,0.2,0.2,0.2,0.3,0.2c0.1,0,0.2,0,0.3-0.2c0.3-0.6,0.7-1.6,1-2.7
			c0-0.2,0.2-0.3,0.4-0.3h1.6c0.2,0,0.4-0.1,0.6-0.3c0.1-0.2,0.1-0.4,0-0.6l-1.8-3.4c0-0.1-0.1-0.1-0.1-0.2v-3.5c0-0.5-0.4-1-1-1
			H271.2z M272.2,545.6c-0.4,0-0.8-0.2-1-0.6c-0.3-0.6-0.7-1.5-1-2.6h-1.4c-0.5,0-1-0.3-1.2-0.7c-0.3-0.4-0.3-1-0.1-1.4l1.9-3.4
			v-3.4c0-1,0.8-1.8,1.8-1.8h2.1c1,0,1.8,0.8,1.8,1.8v3.4l1.8,3.3c0.2,0.5,0.2,1-0.1,1.4c-0.3,0.4-0.7,0.7-1.2,0.7h-1.3
			c-0.3,1.1-0.7,2-1,2.6C273,545.3,272.6,545.6,272.2,545.6"></path>
		</g>
		<g id="_l1_f2_o_mantoilet1">
			<circle cx="352.5" cy="621.1" r="12.5" fill="#ffffff" stroke="#000000" ></circle>
			<path d="M352.5,612.2c-0.9,0-1.7,0.8-1.7,1.7c0,0.9,0.8,1.7,1.7,1.7c0.9,0,1.7-0.8,1.7-1.7C354.2,613,353.5,612.2,352.5,612.2
			 M352.5,616.4c-1.4,0-2.5-1.1-2.5-2.5c0-1.4,1.1-2.5,2.5-2.5c1.4,0,2.5,1.1,2.5,2.5C355,615.3,353.9,616.4,352.5,616.4"></path>
			<g>
				<path d="M350.5,623.5c0.1,0,0.2,0,0.3,0.1c0.1,0.1,0.1,0.2,0.1,0.3c0,0.2,0,0.4,0,0.7c0,1.7,0.5,3.4,1.4,5.2
				c0.1,0.2,0.1,0.2,0.2,0.2c0.1,0,0.1,0,0.2-0.2c0.9-1.8,1.4-3.5,1.4-5.2c0-0.2,0-0.4,0-0.7c0-0.1,0-0.2,0.1-0.3
				c0.1-0.1,0.2-0.1,0.3-0.1c0,0,0.1,0,0.1,0l1.3,0.2c0.1,0,0.1-0.1,0.1-0.1v-4c0-0.9-0.8-1.7-1.7-1.7h-3.6c-0.9,0-1.7,0.8-1.7,1.7
				v4c0,0.1,0.1,0.1,0.1,0.1l1.3-0.2C350.4,623.5,350.5,623.5,350.5,623.5 M352.5,630.8L352.5,630.8c-0.6,0-0.8-0.5-0.9-0.6
				c-1-1.9-1.5-3.8-1.5-5.6c0-0.1,0-0.1,0-0.2l-0.9,0.1c0,0-0.1,0-0.1,0c-0.5,0-0.9-0.4-0.9-0.9v-4c0-1.4,1.1-2.5,2.5-2.5h3.6
				c1.4,0,2.5,1.1,2.5,2.5v4c0,0.5-0.4,0.9-0.9,0.9c0,0-0.1,0-0.1,0l-0.9-0.1c0,0.1,0,0.1,0,0.2c0,1.8-0.5,3.7-1.5,5.6
				C353.3,630.3,353.1,630.8,352.5,630.8L352.5,630.8z"></path>
			</g>
		</g>
		<g id="_l1_f2_o_tea2">
			<circle cx="894.5" cy="621.1" r="12.5" fill="#ffffff" stroke="#000000" ></circle>
			<g>
				<path d="M888.5,616.7v4.9c0,1.4,1.1,2.5,2.5,2.5h5.3c1.4,0,2.5-1.1,2.5-2.5v-4.9H888.5z M896.3,624.8H891c-1.8,0-3.3-1.5-3.3-3.3
				v-5.7h11.8v5.7C899.6,623.4,898.1,624.8,896.3,624.8"></path>
				<path d="M900,621.8h-0.9V621h0.9c1.2,0,2.2-1,2.2-2.2c0-1.2-1-2.2-2.2-2.2h-0.9v-0.8h0.9c1.6,0,3,1.3,3,3
				C903,620.5,901.6,621.8,900,621.8"></path>
			</g>
			<rect x="887.2" y="626.1" width="14" height="0.8"></rect>
			<g>
				<path d="M894.3,620.8h1.8v-1.5c0-0.4-0.4-0.8-0.8-0.8h-0.2c-0.4,0-0.8,0.4-0.8,0.8V620.8z M896.9,621.6h-3.4v-2.4
				c0-0.9,0.7-1.6,1.6-1.6h0.2c0.9,0,1.6,0.7,1.6,1.6V621.6z"></path>
			</g>
			<rect x="894.8" y="616.3" width="0.8" height="1.7"></rect>
		</g>
		<g id="_l1_f2_o__l1_f2_o_womantoilet2">
			<circle cx="945.2" cy="621.1" r="12.5" fill="#ffffff" stroke="#000000" ></circle>

			<path d="M945.2,612c-0.9,0-1.7,0.8-1.7,1.7c0,0.9,0.7,1.7,1.7,1.7c0.9,0,1.7-0.8,1.7-1.7C946.9,612.7,946.1,612,945.2,612
			 M945.2,616.2c-1.4,0-2.5-1.1-2.5-2.5c0-1.4,1.1-2.5,2.5-2.5c1.4,0,2.5,1.1,2.5,2.5C947.7,615.1,946.6,616.2,945.2,616.2"></path>
			<path d="M944.2,617.4c-0.5,0-1,0.4-1,1v3.5c0,0.1,0,0.1-0.1,0.2l-1.9,3.4c-0.1,0.2-0.1,0.4,0.1,0.6c0.1,0.2,0.3,0.3,0.6,0.3h1.7
			c0.2,0,0.3,0.1,0.4,0.3c0.3,1.2,0.7,2.1,1,2.7c0.1,0.2,0.2,0.2,0.3,0.2s0.2,0,0.3-0.2c0.3-0.6,0.7-1.6,1-2.7
			c0-0.2,0.2-0.3,0.4-0.3h1.6c0.2,0,0.4-0.1,0.6-0.3c0.1-0.2,0.1-0.4,0-0.6l-1.8-3.4c0-0.1-0.1-0.1-0.1-0.2v-3.5c0-0.5-0.4-1-1-1
			H944.2z M945.2,630.6c-0.4,0-0.8-0.2-1-0.6c-0.3-0.6-0.7-1.5-1-2.6h-1.4c-0.5,0-1-0.3-1.2-0.7c-0.3-0.4-0.3-1-0.1-1.4l1.9-3.4
			v-3.4c0-1,0.8-1.8,1.8-1.8h2.1c1,0,1.8,0.8,1.8,1.8v3.4l1.8,3.3c0.2,0.5,0.2,1-0.1,1.4c-0.3,0.4-0.7,0.7-1.2,0.7h-1.3
			c-0.3,1.1-0.7,2-1,2.6C946,630.3,945.6,630.6,945.2,630.6"></path>
		</g>

		<g id="_l1_f2_o_wc1">
			<g>
				<circle  fill="#ffffff" stroke="#000000" cx="1089.5" cy="470" r="12.5"></circle>
			</g>
			<g>
				<g>
					<path d="M1086.8,469.5l-1.1,3.3h-1.5l-1.9-5.1h1.7l1,3.1l1.1-3.2h1.4l1.1,3.1l1-3.1h1.5l-1.8,5.1h-1.5L1086.8,469.5z"></path>
					<path d="M1094.3,468.9c-0.7,0-1.1,0.6-1.1,1.3c0,0.7,0.4,1.3,1.1,1.3c0.6,0,0.9-0.4,1-0.5h1.5c-0.1,0.7-0.7,1.9-2.5,1.9
					c-1.5,0-2.7-1.1-2.7-2.7c0-1.6,1.2-2.7,2.7-2.7c1.8,0,2.5,1.2,2.6,1.9h-1.6C1095.2,469.2,1095,468.9,1094.3,468.9z"></path>
				</g>
			</g>
		</g>
		<g id="_l1_f2_o_tea3">
			<g>
				<circle fill="#ffffff" stroke="#000000" cx="1089.5" cy="416.1" r="12.5"></circle>
				<path d="M1083.4,411.7v4.9c0,1.4,1.1,2.5,2.5,2.5h5.3c1.4,0,2.5-1.1,2.5-2.5v-4.9H1083.4z M1091.2,419.8h-5.3
				c-1.8,0-3.3-1.5-3.3-3.3v-5.7h11.8v5.7C1094.5,418.4,1093,419.8,1091.2,419.8"></path>
				<path d="M1094.9,416.8h-0.9V416h0.9c1.2,0,2.2-1,2.2-2.2s-1-2.2-2.2-2.2h-0.9v-0.8h0.9c1.6,0,3,1.3,3,3
				C1097.9,415.5,1096.5,416.8,1094.9,416.8"></path>
			</g>
			<rect x="1082.1" y="421.1" width="14" height="0.8"></rect>
			<g>
				<path d="M1089.2,415.8h1.8v-1.5c0-0.4-0.4-0.8-0.8-0.8h-0.2c-0.4,0-0.8,0.4-0.8,0.8V415.8z M1091.8,416.6h-3.4v-2.4
				c0-0.9,0.7-1.6,1.6-1.6h0.2c0.9,0,1.6,0.7,1.6,1.6V416.6z"></path>
			</g>
			<rect x="1089.7" y="411.3" width="0.8" height="1.7"></rect>
		</g>

	</g>
</svg>